# Blender v3.0.0 OBJ File: ''
# www.blender.org
mtllib teapot.mtl
o Teapot
v 0.465671 2.463000 1.386270
v 0.452973 2.494500 1.348469
v 0.443529 2.494500 1.320356
v 0.440403 2.463000 1.311049
v 0.446656 2.400000 1.329664
v 1.386270 2.463000 0.465671
v 1.348469 2.494500 0.452973
v 1.320356 2.494500 0.443529
v 1.311049 2.463001 0.440403
v 1.329664 2.400000 0.446656
v -1.386270 2.463000 0.465671
v -1.348469 2.494500 0.452973
v -1.320356 2.494500 0.443529
v -1.311049 2.463000 0.440403
v -1.329664 2.400000 0.446656
v -0.465671 2.463000 1.386270
v -0.452973 2.494500 1.348469
v -0.443529 2.494500 1.320356
v -0.440403 2.463001 1.311049
v -0.446656 2.400000 1.329664
v -0.465671 2.463000 -1.386270
v -0.452973 2.494500 -1.348469
v -0.443529 2.494500 -1.320356
v -0.440403 2.463000 -1.311049
v -0.446656 2.400000 -1.329664
v -1.386270 2.463000 -0.465671
v -1.348469 2.494500 -0.452973
v -1.320356 2.494500 -0.443529
v -1.311049 2.463001 -0.440403
v -1.329664 2.400000 -0.446656
v 1.386270 2.463000 -0.465671
v 1.348469 2.494500 -0.452973
v 1.320356 2.494500 -0.443529
v 1.311049 2.463000 -0.440403
v 1.329664 2.400000 -0.446656
v 1.181225 2.463000 -0.866886
v 1.149016 2.494500 -0.843248
v 1.125061 2.494500 -0.825668
v 0.465671 2.463000 -1.386270
v 0.452973 2.494500 -1.348469
v 0.443529 2.494500 -1.320356
v 0.440403 2.463001 -1.311049
v 0.446656 2.400000 -1.329664
v 0.638080 0.900000 1.899520
v 1.899520 0.900000 0.638080
v -1.899520 0.900000 0.638080
v -2.000000 0.900000 0.000000
v -0.638080 0.900000 1.899520
v -0.638080 0.900000 -1.899520
v -1.899520 0.900000 -0.638080
v 1.899520 0.900000 -0.638080
v 0.638080 0.900000 -1.899520
v -2.968800 1.800000 0.144000
v -2.910131 2.008181 0.144000
v -2.734458 2.134454 0.144000
v -2.442278 2.199298 0.144000
v -2.034093 2.223187 0.144000
v -1.510400 2.226600 0.144000
v -2.894400 1.800000 0.216000
v -2.838906 1.980950 0.216000
v -1.535200 2.170800 0.216000
v -2.805600 1.800000 0.216000
v -2.753895 1.948450 0.216000
v -1.564800 2.104200 0.216000
v -2.731200 1.800000 0.144000
v -2.682669 1.921219 0.144000
v -1.589600 2.048400 0.144000
v -2.731200 1.800000 -0.144000
v -2.682669 1.921219 -0.144000
v -1.589600 2.048400 -0.144000
v -2.805600 1.800000 -0.216000
v -2.753895 1.948450 -0.216000
v -1.564800 2.104200 -0.216000
v -2.894400 1.800000 -0.216000
v -2.838906 1.980950 -0.216000
v -1.535200 2.170800 -0.216000
v -2.968800 1.800000 -0.144000
v -2.910131 2.008181 -0.144000
v -2.734458 2.134454 -0.144000
v -2.442278 2.199298 -0.144000
v -2.034093 2.223187 -0.144000
v -1.510400 2.226600 -0.144000
v -1.910400 0.631200 0.144000
v -2.595725 1.060502 0.144000
v -2.804755 1.298122 0.144000
v -2.928231 1.545907 0.144000
v -1.935200 0.705600 0.216000
v -1.964800 0.794400 0.216000
v -1.989600 0.868800 0.144000
v -1.989600 0.868800 -0.144000
v -1.964800 0.794400 -0.216000
v -1.935200 0.705600 -0.216000
v -1.910400 0.631200 -0.144000
v -2.595725 1.060502 -0.144000
v -2.804755 1.298122 -0.144000
v -2.928231 1.545907 -0.144000
v 2.296134 0.906240 0.296333
v 1.700000 0.685800 0.316800
v 1.700000 0.600000 0.000000
v 2.244947 1.069920 0.444499
v 1.700000 0.890400 0.475200
v 2.183853 1.265280 0.444499
v 1.700000 1.134600 0.475200
v 2.762400 2.400000 0.120000
v 2.132666 1.428960 0.296333
v 1.700000 1.339200 0.316800
v 1.700000 1.425000 0.000000
v 2.762400 2.400000 -0.120000
v 2.132666 1.428960 -0.296333
v 1.700000 1.339200 -0.316800
v 2.183853 1.265280 -0.444499
v 1.700000 1.134600 -0.475200
v 2.244947 1.069920 -0.444499
v 1.700000 0.890400 -0.475200
v 2.296134 0.906240 -0.296333
v 1.700000 0.685800 -0.316800
v 3.158400 2.400000 0.072000
v 3.200000 2.400000 0.000000
v 3.348595 2.473354 0.088896
v 3.368813 2.470935 0.103104
v 3.434000 2.472900 0.000000
v 3.333274 2.445677 0.115008
v 3.059200 2.400000 0.108000
v 3.155379 2.446498 0.115488
v 3.206938 2.467997 0.133344
v 3.213367 2.466247 0.154656
v 3.174157 2.442999 0.172512
v 2.940800 2.400000 0.108000
v 3.010221 2.441702 0.115488
v 3.037862 2.461603 0.133344
v 2.984243 2.439802 0.172512
v 2.841600 2.400000 0.072000
v 2.888602 2.437685 0.076992
v 2.896205 2.456246 0.088896
v 2.800000 2.400000 0.000000
v 2.837600 2.436000 0.000000
v 2.836800 2.454000 0.000000
v 2.841600 2.400000 -0.072000
v 2.888602 2.437685 -0.076992
v 2.896205 2.456246 -0.088896
v 2.940800 2.400000 -0.108000
v 3.010221 2.441703 -0.115488
v 3.037862 2.461603 -0.133344
v 2.984243 2.439802 -0.172512
v 3.059200 2.400000 -0.108000
v 3.155379 2.446498 -0.115488
v 3.213367 2.466247 -0.154656
v 3.174157 2.442999 -0.172512
v 3.158400 2.400000 -0.072000
v 3.348595 2.473354 -0.088896
v 3.368813 2.470935 -0.103104
v 3.333274 2.445677 -0.115008
v 0.063808 2.700000 0.189952
v 0.057246 2.804400 0.170215
v 0.114676 3.034800 0.340477
v 0.098814 3.117600 0.293361
v 0.189952 2.700000 0.063808
v 0.170215 2.804400 0.057246
v 0.340477 3.034800 0.114676
v 0.293360 3.117600 0.098815
v -0.189952 2.700000 0.063808
v -0.170215 2.804400 0.057246
v -0.340477 3.034800 0.114676
v -0.293360 3.117600 0.098815
v -0.145078 2.804400 0.106513
v -0.290295 3.034800 0.213234
v -0.213234 3.034800 0.290296
v -0.183734 3.117600 0.250127
v -0.063808 2.700000 0.189952
v -0.057246 2.804400 0.170215
v -0.063808 2.700000 -0.189952
v -0.057246 2.804400 -0.170215
v -0.106513 2.804400 -0.145078
v -0.213234 3.034800 -0.290294
v -0.183734 3.117600 -0.250126
v -0.189952 2.700000 -0.063808
v -0.170215 2.804400 -0.057246
v -0.340477 3.034800 -0.114676
v -0.293360 3.117600 -0.098813
v 0.189952 2.700000 -0.063808
v 0.170215 2.804400 -0.057246
v 0.145078 2.804400 -0.106513
v 0.290295 3.034800 -0.213234
v 0.250127 3.117600 -0.183733
v 0.063808 2.700000 -0.189952
v 0.057246 2.804400 -0.170215
v 0.114676 3.034800 -0.340476
v 0.098814 3.117600 -0.293359
v 0.414752 2.400000 1.234688
v 1.234688 2.400000 0.414752
v 1.144271 2.474400 0.384379
v -1.234688 2.400000 0.414752
v -0.414752 2.400000 1.234688
v -0.384379 2.474400 1.144271
v -0.414752 2.400000 -1.234688
v -1.234688 2.400000 -0.414752
v -1.144271 2.474400 -0.384379
v 1.234688 2.400000 -0.414752
v 0.414752 2.400000 -1.234688
v 0.384379 2.474400 -1.144271
v 0.472434 0.105600 -1.406404
v 1.406404 0.105600 -0.472434
v -1.406404 0.105600 -0.472434
v -0.472434 0.105600 -1.406404
v -0.472434 0.105600 1.406404
v -1.406404 0.105600 0.472434
v 1.406404 0.105600 0.472434
v 0.472434 0.105600 1.406404
vt 0.519203 0.898923
vt 0.516275 0.902924
vt 0.000000 0.000000
vt 0.000000 0.000000
vt 0.000000 0.000000
vt 0.000000 0.000000
vt 0.000000 0.000000
vt 0.000000 0.000000
vt 0.632411 0.077656
vt 0.478789 0.197186
vt 0.475014 0.194141
vt 0.520939 0.146724
vt 0.630178 0.073348
vt 0.000000 0.000000
vt 0.000000 0.000000
vt 0.407060 0.309302
vt 0.379167 0.493926
vt 0.371879 0.493706
vt 0.400114 0.306899
vt 0.465657 0.186549
vt 0.471605 0.191374
vt 0.000000 0.000000
vt 0.000000 0.000000
vt 0.000000 0.000000
vt 0.000000 0.000000
vt 0.513691 0.906484
vt 0.000000 0.000000
vt 0.000000 0.000000
vt 0.509180 0.912683
vt 0.417183 0.811743
vt 0.423745 0.808246
vt 0.415479 0.312409
vt 0.411115 0.310709
vt 0.000000 0.000000
vt 0.000000 0.000000
vt 0.000000 0.000000
vt 0.000000 0.000000
vt 0.000000 0.000000
vt 0.000000 0.000000
vt 0.000000 0.000000
vt 0.885827 0.660843
vt 0.955040 0.475604
vt 0.966452 0.498941
vt 0.000000 0.000000
vt 0.000000 0.000000
vt 0.000000 0.000000
vt 0.000000 0.000000
vt 0.000000 0.000000
vt 0.000000 0.000000
vt 0.000000 0.000000
vt 0.000000 0.000000
vt 0.000000 0.000000
vt 0.628605 0.069296
vt 0.517932 0.143367
vt 0.512709 0.137518
vt 0.000000 0.000000
vt 0.000000 0.000000
vt 0.524961 0.891009
vt 0.000000 0.000000
vt 0.916048 0.653367
vt 0.997264 0.496552
vt 0.999313 0.665041
vt 0.000000 0.000000
vt 0.000000 0.000000
vt 0.000000 0.000000
vt 0.637610 0.085765
vt 0.485399 0.204266
vt 0.000000 0.000000
vt 0.000000 0.000000
vt 0.000000 0.000000
vt 0.000000 0.000000
vt 0.846005 0.216521
vt 0.851779 0.213305
vt 0.862574 0.224003
vt 0.856283 0.230947
vt 0.850221 0.223225
vt 0.374493 0.626930
vt 0.170274 0.884016
vt 0.164659 0.636474
vt 0.000000 0.000000
vt 0.000000 0.000000
vt 0.676723 0.877718
vt 0.643676 0.833288
vt 0.619706 0.800716
vt 0.651499 0.780119
vt 0.674348 0.810334
vt 0.000000 0.000000
vt 0.000000 0.000000
vt 0.000000 0.000000
vt 0.000000 0.000000
vt 0.000000 0.000000
vt 0.045091 0.495231
vt 0.165003 0.490229
vt 0.040387 0.628101
vt 0.000000 0.000000
vt 0.000000 0.000000
vt 0.000000 0.000000
vt 0.000000 0.000000
vt 0.000000 0.000000
vt 0.000000 0.000000
vt 0.971816 0.416463
vt 0.000000 0.000000
vt 0.000000 0.000000
vt 0.000000 0.000000
vt 0.949491 0.430365
vt 0.950941 0.413203
vt 0.000000 0.000000
vt 0.000000 0.000000
vt 0.999841 0.464797
vt 0.948562 0.449436
vt 0.951224 0.449241
vt 0.958015 0.468020
vt 0.967493 0.481847
vt 0.979730 0.486203
vt 0.989746 0.477165
vt 0.000000 0.000000
vt 0.790465 0.223796
vt 0.810326 0.218440
vt 0.816100 0.236276
vt 0.819575 0.244545
vt 0.806168 0.252428
vt 0.648724 0.731301
vt 0.651686 0.755640
vt 0.638800 0.757410
vt 0.634527 0.730367
vt 0.640697 0.695888
vt 0.654085 0.660804
vt 0.675077 0.623148
vt 0.000000 0.000000
vt 0.000000 0.000000
vt 0.676431 0.733752
vt 0.679114 0.753870
vt 0.663668 0.755342
vt 0.661103 0.732561
vt 0.155118 0.255862
vt 0.000000 0.000000
vt 0.000000 0.000000
vt 0.000000 0.000000
vt 0.000000 0.000000
vt 0.763210 0.896289
vt 0.756063 0.907118
vt 0.708732 0.852895
vt 0.000000 0.000000
vt 0.000000 0.000000
vt 0.000000 0.000000
vt 0.000000 0.000000
vt 0.000000 0.000000
vt 0.000000 0.000000
vt 0.000000 0.000000
vt 0.000000 0.000000
vt 0.749302 0.575350
vt 0.744113 0.562192
vt 0.000000 0.000000
vt 0.000000 0.000000
vt 0.000000 0.000000
vt 0.386066 0.626635
vt 0.427543 0.806219
vt 0.000000 0.000000
vt 0.000000 0.000000
vt 0.000000 0.000000
vt 0.000000 0.000000
vt 0.000000 0.000000
vt 0.000000 0.000000
vt 0.000000 0.000000
vt 0.000000 0.000000
vt 0.000000 0.000000
vt 0.000000 0.000000
vt 0.000000 0.000000
vt 0.000000 0.000000
vt 0.000000 0.000000
vt 0.000000 0.000000
vt 0.000000 0.000000
vt 0.000000 0.000000
vt 0.000000 0.000000
vt 0.845486 0.172635
vt 0.000000 0.000000
vt 0.000000 0.000000
vt 0.000000 0.000000
vt 0.000000 0.000000
vt 0.000000 0.000000
vt 0.000000 0.000000
vt 0.000000 0.000000
vt 0.825844 0.664464
vt 0.943365 0.433691
vt 0.946752 0.454975
vt 0.946756 0.429224
vt 0.000000 0.000000
vt 0.000000 0.000000
vt 0.603927 0.775031
vt 0.642812 0.283821
vt 0.000000 0.000000
vt 0.000000 0.000000
vt 0.848684 0.392543
vt 0.000000 0.000000
vt 0.000000 0.000000
vt 0.956266 0.454115
vt 0.961961 0.469833
vt 0.000000 0.000000
vt 0.000000 0.000000
vt 0.000000 0.000000
vt 0.000000 0.000000
vt 0.000000 0.000000
vt 0.000000 0.000000
vt 0.000000 0.000000
vt 0.000000 0.000000
vt 0.000000 0.000000
vt 0.000000 0.000000
vt 0.000000 0.000000
vt 0.000000 0.000000
vt 0.000000 0.000000
vt 0.000000 0.000000
vt 0.000000 0.000000
vt 0.000000 0.000000
vt 0.000000 0.000000
vt 0.990383 0.462270
vt 0.993428 0.458412
vt 0.986822 0.477301
vt 0.983978 0.456995
vt 0.986331 0.443680
vt 0.984903 0.469237
vt 0.807214 0.197873
vt 0.840720 0.195642
vt 0.978538 0.446152
vt 0.000000 0.000000
vt 0.852851 0.176727
vt 0.000000 0.000000
vt 0.000000 0.000000
vt 0.000000 0.000000
vt 0.000000 0.000000
vt 0.000000 0.000000
vt 0.000000 0.000000
vt 0.000000 0.000000
vt 0.000000 0.000000
vt 0.000000 0.000000
vt 0.000000 0.000000
vt 0.000000 0.000000
vt 0.809183 0.171047
vt 0.786829 0.198284
vt 0.000000 0.000000
vt 0.690051 0.040746
vt 0.699988 0.053768
vt 0.000000 0.000000
vt 0.000000 0.000000
vt 0.000000 0.000000
vt 0.846656 0.195749
vt 0.880280 0.166824
vt 0.896889 0.179601
vt 0.898805 0.211571
vt 0.883643 0.226063
vt 0.794709 0.167040
vt 0.810748 0.158672
vt 0.934016 0.067715
vt 0.852191 0.408339
vt 0.741457 0.399807
vt 0.381780 0.626386
vt 0.000000 0.000000
vt 0.000000 0.000000
vt 0.945545 0.055560
vt 0.795738 0.000159
vt 0.000000 0.000000
vt 0.857722 0.666982
vt 0.000000 0.000000
vn 0.9590 0.2834 0.0000
vn 0.0000 0.2834 -0.9590
vn -0.2735 0.9221 0.2735
vn 0.6811 0.2688 0.6811
vn 0.5583 0.7818 0.2775
vn -0.0000 0.2834 0.9590
vn -0.0000 -0.2834 -0.9590
vn -0.5583 0.7818 -0.2775
vn -0.9590 0.2834 -0.0000
vn -0.9590 -0.2834 0.0000
vn -0.3078 0.5033 0.8074
vn -0.6811 0.2688 -0.6811
vn 0.0000 0.0000 -1.0000
vn 0.2676 0.7992 -0.5382
vn 0.9590 -0.2834 -0.0000
vn -0.6811 -0.2688 -0.6811
vn 0.6811 -0.2688 0.6811
vn 0.6811 -0.2688 -0.6811
vn -0.8390 0.5441 0.0000
vn 0.6811 0.2688 -0.6811
vn -0.9392 0.3433 0.0000
vn -0.6323 0.6707 0.3879
vn -0.6811 -0.2688 0.6811
vn 0.0000 -0.2834 0.9590
vn 0.6822 0.2631 -0.6822
vn -0.6754 0.2963 -0.6754
vn -0.6682 0.5650 0.4841
vn -0.6754 0.2963 0.6754
vn 0.0000 0.3120 -0.9501
vn -0.0751 0.9972 0.0000
vn -0.8218 -0.5698 -0.0000
vn -0.4433 -0.8132 -0.3770
vn -0.0776 0.5138 -0.8544
vn 0.0000 -0.5274 0.8496
vn 0.8496 -0.5274 -0.0000
vn 0.6100 -0.5058 -0.6100
vn 0.6659 0.5441 -0.5105
vn -0.2831 0.9591 -0.0046
vn -0.7035 0.1004 0.7035
vn -0.6705 0.1967 0.7153
vn -0.2690 -0.2398 0.9328
vn 0.6582 -0.2447 0.7119
vn 0.6100 -0.5058 0.6100
vn -0.6100 -0.5058 0.6100
vn 0.6582 -0.2447 -0.7119
vn 0.1049 -0.8465 0.5219
vn -0.6705 0.1967 -0.7153
vn -0.0776 0.5138 0.8544
vn -0.9992 0.0391 0.0000
vn 0.0000 0.1858 -0.9826
vn 0.0000 -0.0000 1.0000
vn 0.6659 0.5441 0.5105
vn 0.1049 -0.8465 -0.5219
vn -0.0000 1.0000 0.0000
vn -0.2690 -0.2398 -0.9328
vn 0.0000 -0.5274 -0.8496
vn 0.4721 -0.3809 -0.7950
vn 0.0903 0.0964 -0.9912
vn 0.0000 -1.0000 -0.0000
vn -0.3078 0.5033 -0.8074
vn 0.8220 -0.5554 -0.1259
vn 0.4721 -0.3809 0.7950
vn 0.0253 0.9948 0.0988
vn -0.6684 -0.7438 0.0000
vn -0.5837 0.8120 0.0000
vn -0.2096 0.9753 -0.0704
vn 0.7792 0.6267 0.0000
vn -0.6002 0.7998 0.0001
vn 0.8229 -0.5681 0.0000
vn -0.1635 0.7045 -0.6906
vn 0.3250 0.0775 0.9425
vn -0.0032 0.1731 -0.9849
vn -0.0104 0.6201 0.7844
vn 0.3088 -0.3116 -0.8986
vn 0.2568 0.4332 -0.8639
vn 0.4059 -0.9139 -0.0000
vn 0.6206 -0.6870 -0.3780
vn 0.8319 0.0257 -0.5543
vn 0.6206 -0.6870 0.3780
vn 0.8319 0.0257 0.5543
vn 0.3088 -0.3116 0.8986
vn 0.2568 0.4332 0.8639
vn 0.6754 0.2963 0.6754
vn -0.0031 0.1731 0.9849
vn -0.2426 -0.5879 0.7717
vn -0.0104 0.6201 -0.7844
vn -0.1817 0.5564 0.8108
vn 0.3250 0.0775 -0.9425
vn 0.8721 0.4707 -0.1335
vn -0.9826 0.1858 0.0000
vn -0.6100 -0.5058 -0.6100
vn 0.5090 0.4973 -0.7026
vn -0.7035 0.1004 -0.7035
vn -0.7839 -0.6092 0.1201
vn 0.9826 0.1858 0.0000
vn 0.9501 0.3120 0.0000
vn 0.7035 0.1004 -0.7035
vn -0.1259 -0.5554 -0.8220
vn -0.1335 0.4707 -0.8721
vn 0.5796 -0.5728 0.5796
vn 0.0000 0.1858 0.9826
vn -0.8691 0.4946 0.0000
vn 0.1229 0.9612 0.2472
vn -0.6494 -0.5973 -0.4707
vn 0.6227 0.4737 0.6227
vn 0.6961 0.1754 0.6962
vn 0.4707 -0.5973 -0.6494
vn -0.1335 0.4707 0.8721
vn -0.7026 0.4973 -0.5090
vn 0.2096 0.9753 0.0704
vn -0.2472 0.9612 0.1229
vn -0.2775 0.7818 0.5583
vn -0.1229 0.9612 -0.2472
vn 0.2472 0.9612 -0.1229
vn 0.0903 0.0964 0.9912
vn 0.0000 0.3120 0.9501
vn 0.9284 -0.3717 0.0000
vn -0.1044 0.9945 0.0000
vn 0.1156 -0.9933 0.0000
usemtl Material.001
s off
f 29/1/1 28/2/1 13/3/1 14/4/1
f 4/5/2 19/6/2 18/7/2 3/8/2
f 42/9/3 34/10/3 33/11/3 38/12/3 41/13/3
f 24/14/4 23/15/4 28/2/4 29/1/4
f 7/16/5 2/17/5 1/18/5 6/19/5 31/20/5 32/21/5
f 24/14/6 42/22/6 41/23/6 23/15/6
f 20/24/7 19/6/7 4/5/7 5/25/7
f 27/26/8 22/27/8 21/28/8 26/29/8 11/30/8 12/31/8
f 33/11/9 34/10/9 9/32/9 8/33/9
f 34/34/10 35/35/10 10/36/10 9/37/10
f 105/38/11 106/39/11 103/40/11 102/41/11 131/42/11 104/43/11
f 4/5/12 3/8/12 8/44/12 9/37/12
f 75/45/13 76/46/13 73/47/13 72/48/13 71/49/13 91/50/13 92/51/13 74/52/13
f 40/53/14 37/54/14 32/21/14 31/20/14 36/55/14 39/56/14 21/28/14 22/27/14
f 15/57/15 30/58/15 29/1/15 14/4/15
f 9/37/16 10/36/16 5/25/16 4/5/16
f 29/1/17 30/58/17 25/59/17 24/14/17
f 19/6/18 20/24/18 15/57/18 14/4/18
f 105/60/19 104/43/19 108/61/19 109/62/19
f 19/6/20 14/4/20 13/3/20 18/7/20
f 11/30/21 26/29/21 50/63/21 47/64/22 46/65/21
f 42/9/23 43/66/23 35/67/23 34/10/23
f 25/59/24 43/68/24 42/22/24 24/14/24
f 36/55/25 31/20/25 51/69/25 52/70/25 39/56/25
f 26/29/26 21/28/26 49/71/26 50/63/26
f 167/72/27 168/73/27 164/74/27 163/75/27 166/76/27
f 16/77/28 11/30/28 46/78/28 48/79/28
f 21/28/29 39/56/29 52/70/29 49/71/29
f 58/80/30 82/81/30 81/82/30 80/83/30 79/84/30 55/85/30 56/86/30 57/87/30
f 206/88/31 46/65/31 47/64/32 50/63/31 203/89/31
f 81/90/33 82/81/33 76/46/33 75/45/33 78/91/33 79/84/33 80/83/33
f 208/92/34 44/93/34 48/79/34 205/94/34
f 207/95/35 202/96/35 51/69/35 45/97/35
f 52/70/36 51/69/36 202/96/36 201/98/36
f 71/49/37 68/99/37 90/100/37 91/50/37
f 150/101/38 149/102/38 118/103/38 117/104/38 119/105/38 121/106/38 151/107/38 147/108/38 144/109/38 108/61/38 104/43/38 131/42/38 126/110/38 125/111/38 130/112/38 134/113/38 137/114/38 140/115/38 143/116/38
f 169/117/39 170/118/39 165/119/39 162/120/39 161/121/39
f 59/122/40 60/123/40 54/124/40 53/125/40
f 59/122/41 53/125/41 86/126/41 85/127/41 84/128/41 83/129/41 87/130/41
f 65/131/42 66/132/42 63/133/42 62/134/42
f 207/95/43 45/135/43 44/93/43 208/92/43
f 48/79/44 46/78/44 206/88/44 205/94/44
f 71/49/45 72/48/45 69/136/45 68/99/45
f 66/132/46 67/137/46 64/138/46 63/133/46
f 77/139/47 78/91/47 75/45/47 74/52/47
f 61/140/48 58/141/48 57/142/48 56/86/48 55/85/48 54/124/48 60/123/48
f 54/124/49 78/91/49 77/139/49 96/143/49 86/144/49 53/125/49
f 172/145/50 186/146/50 185/147/50 171/148/50
f 62/134/51 63/133/51 64/138/51 61/149/51 60/123/51 59/122/51 87/130/51 88/150/51
f 89/151/52 65/131/52 62/134/52 88/152/52
f 72/48/53 73/47/53 70/153/53 69/136/53
f 23/15/54 41/23/54 40/154/54 22/27/54 27/26/54 12/31/54 17/155/54 2/17/54 7/16/54 32/21/54 37/54/54 38/12/54 33/11/54 8/33/54 3/8/54 18/156/54 13/157/54 28/2/54
f 40/53/54 41/13/54 38/12/54 37/54/54
f 95/158/55 96/143/55 77/139/55 74/52/55 92/51/55 93/159/55 94/160/55
f 204/161/56 49/71/56 52/70/56 201/98/56
f 115/162/57 116/163/57 114/164/57 113/165/57 148/166/57 152/167/57
f 148/166/58 113/165/58 114/164/58 112/168/58 111/169/58 144/170/58
f 208/92/59 205/171/59 206/88/59 203/89/59 204/161/59 201/98/59 202/96/59 207/95/59
f 111/169/60 112/168/60 110/172/60 109/173/60 108/174/60 144/170/60
f 159/175/61 158/176/61 181/177/61 182/178/61 183/179/61
f 100/180/62 101/181/62 98/182/62 97/183/62 122/184/62 127/185/62
f 125/111/63 126/110/63 120/186/63 121/106/63 119/105/63
f 85/187/64 86/144/64 96/143/64 95/158/64 94/160/64 93/159/64 83/129/64 84/188/64
f 79/84/65 78/189/65 54/124/65 55/85/65
f 194/190/66 169/117/66 161/121/66 176/191/66 171/148/66 185/147/66 200/192/66 197/193/66
f 65/131/67 89/151/67 47/64/68 90/100/67 68/99/67
f 97/183/69 115/162/69 152/167/69 151/107/69 121/106/69 120/186/69 122/194/69
f 125/111/70 119/105/70 117/104/70 123/195/70 124/196/70 129/197/70 130/112/70
f 126/110/71 127/185/71 122/184/71 120/186/71
f 128/198/72 129/199/72 124/200/72 123/195/72
f 126/110/73 131/42/73 127/185/73
f 132/201/74 133/202/74 129/199/74 128/198/74
f 133/202/75 134/203/75 130/204/75 129/199/75
f 99/205/76 116/163/76 115/162/76 97/206/76 98/182/76
f 135/207/77 136/208/77 133/202/77 132/201/77
f 136/208/78 137/209/78 134/203/78 133/202/78
f 138/210/79 139/211/79 136/208/79 135/207/79
f 139/211/80 140/212/80 137/209/80 136/208/80
f 141/213/81 142/214/81 139/211/81 138/210/81
f 142/215/82 143/216/82 140/115/82 139/217/82
f 6/19/83 1/18/83 44/93/83 45/135/83
f 145/218/84 146/219/84 142/215/84 141/220/84
f 167/72/85 166/76/85 165/119/85 170/118/85 154/221/85 155/222/85
f 147/108/86 148/166/86 144/170/86
f 149/223/87 150/101/87 143/216/87 142/215/87 146/219/87 145/218/87
f 151/107/88 152/167/88 148/166/88 147/108/88
f 184/224/89 160/225/89 159/175/89 183/179/89
f 162/226/90 177/227/90 176/191/90 161/228/90
f 50/63/91 49/71/91 204/161/91 203/89/91
f 187/229/92 188/230/92 184/224/92 183/179/92
f 176/191/93 177/227/93 173/231/93 172/145/93 171/148/93
f 163/75/94 178/232/94 177/227/94 162/120/94 165/119/94 166/76/94
f 180/233/95 181/177/95 158/176/95 157/234/95
f 6/19/96 45/97/96 51/69/96 31/20/96
f 185/147/97 186/146/97 182/178/97 181/177/97 180/233/97
f 187/229/98 186/146/98 172/145/98 173/231/98 174/235/98
f 175/236/99 188/230/99 187/229/99 174/235/99
f 155/222/100 154/221/100 158/237/100 159/175/100
f 170/118/101 169/117/101 153/238/101 154/221/101
f 164/74/102 179/239/102 178/232/102 163/75/102
f 190/240/103 191/241/103 194/242/103 193/243/103 189/244/103
f 174/235/104 173/231/104 177/227/104 178/232/104
f 156/245/105 155/222/105 159/175/105 160/225/105
f 164/74/54 168/73/54 156/245/54 160/225/54 184/246/54 188/247/54 175/248/54 179/249/54
f 158/237/106 154/221/106 153/238/106 157/250/106
f 183/179/107 182/178/107 186/146/107 187/229/107
f 156/245/108 168/73/108 167/72/108 155/222/108
f 178/232/109 179/239/109 175/236/109 174/235/109
f 185/147/110 180/251/110 157/250/110 153/238/110 169/117/110 194/190/110 191/241/110 200/252/110
f 197/193/111 196/253/111 192/254/111 193/243/111 194/242/111
f 17/255/112 12/31/112 11/30/112 16/77/112 1/18/112 2/17/112
f 197/193/113 200/192/113 199/256/113 195/257/113 196/253/113
f 199/258/114 200/252/114 191/241/114 190/240/114 198/259/114
f 131/42/115 102/260/115 103/40/115 101/181/115 100/261/115 127/185/115
f 1/18/116 16/77/116 48/79/116 44/93/116
f 68/99/117 69/136/117 66/132/117 65/131/117
f 109/173/118 110/172/118 107/262/118 106/39/118 105/38/118
f 69/136/119 70/153/119 67/137/119 66/132/119
